<svg xmlns="http://www.w3.org/2000/svg" width="1280" height="720" viewBox="0 0 1280 720">
  <rect width="1280" height="720" fill="#F8F5EF"/>
  <rect x="50" y="42" width="1180" height="636" rx="28" fill="#FFFFFF" stroke="#D8CFC2"/>
  <text x="92" y="92" fill="#14213D" font-family="Inter, Arial" font-size="28" font-weight="700">Dashboard · Regime analytics</text>
  <text x="92" y="126" fill="#667085" font-family="Inter, Arial" font-size="16">Price path, inferred regimes, posterior state mass and entropy.</text>
  <g transform="translate(92 170)">
    <rect width="1096" height="240" rx="20" fill="#FBFAF7" stroke="#E4DDD2"/>
    <path d="M40 180 C120 150 150 120 250 135 S410 190 510 126 S690 112 820 150 S980 88 1040 110" fill="none" stroke="#14213D" stroke-width="4"/>
    <rect x="40" y="35" width="210" height="170" fill="#D7E8E4" opacity=".55"/><rect x="250" y="35" width="260" height="170" fill="#F3D7A7" opacity=".55"/><rect x="510" y="35" width="190" height="170" fill="#E7B8B8" opacity=".55"/><rect x="700" y="35" width="340" height="170" fill="#D7E8E4" opacity=".55"/>
    <text x="40" y="225" fill="#667085" font-family="Inter, Arial" font-size="14">Price path with inferred regime bands</text>
  </g>
  <g transform="translate(92 444)">
    <rect width="1096" height="160" rx="20" fill="#FBFAF7" stroke="#E4DDD2"/>
    <path d="M40 118 L240 118 L260 25 L505 25 L526 118 L705 118 L722 25 L1040 25" fill="none" stroke="#2A6F68" stroke-width="3"/>
    <path d="M40 25 L240 25 L260 118 L505 118 L526 25 L705 25 L722 118 L1040 118" fill="none" stroke="#B7791F" stroke-width="3"/>
    <path d="M40 132 C230 130 270 60 290 95 S510 130 540 80 S700 116 735 96 S900 120 1040 124" fill="none" stroke="#14213D" stroke-dasharray="7 6" stroke-width="3"/>
    <text x="40" y="145" fill="#667085" font-family="Inter, Arial" font-size="14">Posterior state mass + entropy uncertainty</text>
  </g>
</svg>
